<svg width="570" height="333" viewBox="0 0 570 333" fill="none" xmlns="http://www.w3.org/2000/svg">
<path d="M497.6 230C496.5 225.8 494.9 222 493 218.4C491.1 214.9 488.8 211.7 486.2 209C483.6 206.2 480.6 203.9 477.3 202C474.1 200 470.6 198.6 466.9 197.6C463.2 196.6 459.3 196.1 455.2 196.2C453.1 196.2 450.9 196.3 448.8 196.7V0H0V221H370.3L379.5 255.2L339.3 266L329.5 229.2L313.5 233.5L336.4 319L352.4 314.7L342.4 277.3L382.5 266.5L392.5 303.9L408.5 299.6L387.4 221H413.3C411.2 225.3 410 229.9 409.4 234.9C408.7 240.8 409.2 246.9 410.9 253.1C412.6 259.4 415.2 264.9 418.7 269.7C422.2 274.5 426.4 278.3 431.2 281.2C436.1 284.1 441.5 285.9 447.4 286.7C453.3 287.5 459.5 287 465.9 285.2C472.4 283.5 478 280.8 482.8 277.2C487.5 273.6 491.3 269.3 494 264.4C496.7 259.5 498.4 254.1 499.1 248.2C499.8 242.4 499.3 236.3 497.6 230ZM88.3 82.9C77.3 82.9 68.3 72.1 68.3 58.6V55.4H48.6V88.1L88.3 113.4V192.1H28.6V137.5C39.6 137.5 48.6 148.3 48.6 161.8V165H68.5V130.8L28.6 105.9V28.4H88.3V82.9V82.9ZM151.6 141.1L112.1 113.9V168.3C112.1 181.6 103.2 192.4 92.2 192.4V28.7H112.1V83.3L131.8 97V55.9H116V28.7H151.6V141.1ZM216.5 192.2C205.2 192.2 196.1 181.2 196.1 167.5V137.5L175.9 124V192H155.5V28.4H175.9V96.5L196.1 110L205.2 116.1L196.1 106V55.7H179.8V28.4H216.5V192.2ZM281.4 93.4L260.7 112L272.5 104.8L281.4 110.7V192.6C270.1 192.6 261 181.6 261 167.9V127.6L230.9 107.3L240.8 116.4V192.6H220.4V28.9H240.8V83.5L261 97.2V56.1H244.7V28.9H281.4V93.4ZM352.2 55.9H329.2V192.6H307.8V55.9H284.5V28.7H352.2V55.9ZM420.2 192.2H398.6V137.6L377.4 124V166C377.4 180.3 367.8 191.9 356 191.9V28.4H377.3V96.5L398.6 110.2V55.7H381.3V28.4H420.4V192.2H420.2ZM482.8 247.5C482.5 251.5 481.6 255.2 479.9 258.4C478.3 261.6 476 264.3 473 266.6C470.1 268.9 466.5 270.6 462.3 271.7C458.1 272.8 454.2 273.1 450.5 272.7C446.8 272.2 443.4 271 440.4 269.1C437.4 267.1 434.7 264.5 432.5 261.1C430.2 257.7 428.5 253.6 427.2 249C425.9 244.3 425.4 239.9 425.7 235.9C426 231.8 426.9 228.2 428.5 224.9C429.2 223.6 430 222.3 430.9 221.2C432.2 219.5 433.7 218 435.4 216.7C438.4 214.4 442 212.7 446.1 211.6C447 211.4 447.8 211.2 448.7 211C451.9 210.4 455 210.3 457.9 210.6C461.6 211.1 465 212.3 468 214.3C471 216.3 473.7 219 475.9 222.4C478.2 225.8 479.9 229.8 481.2 234.5C482.6 239 483.1 243.4 482.8 247.5Z" fill="white"/>
<path d="M315.4 295.9C314.5 292.3 313.1 289.5 311.3 287.3C309.5 285.1 307.5 283.4 305.2 282.2C302.9 281 300.4 280.1 297.7 279.6C295 279.1 292.3 278.8 289.6 278.6C286.9 278.4 284.2 278.2 281.7 278.1C279.1 278 276.8 277.7 274.7 277.2C272.6 276.8 270.8 276 269.3 275C267.8 273.9 266.8 272.4 266.3 270.4C265.9 268.8 265.8 267.3 266 265.9C266.2 264.4 266.7 263.1 267.6 261.8C268.5 260.5 269.7 259.4 271.2 258.5C272.7 257.5 274.6 256.7 276.8 256.1C279.2 255.4 281.4 255.2 283.4 255.4C285.4 255.5 287.1 255.8 288.7 256.1C290.2 256.5 291.6 256.9 292.7 257.2C293.9 257.5 294.8 257.6 295.7 257.4C296.5 257.2 297.1 256.8 297.5 256.3C297.9 255.8 298.3 255 298.6 254.1L300.5 245.5C296.7 243.5 292.5 242.2 287.9 241.8C283.2 241.4 278.4 241.8 273.3 243.2C268.8 244.4 265 246.2 261.9 248.5C258.8 250.8 256.4 253.4 254.6 256.3C252.8 259.2 251.7 262.3 251.3 265.6C250.9 268.9 251.1 272.1 251.9 275.2C252.9 279.1 254.4 282.3 256.2 284.6C258 286.9 260.1 288.7 262.5 290C264.8 291.3 267.3 292.1 270 292.6C272.7 293.1 275.3 293.4 278 293.5C280.7 293.6 283.3 293.7 285.8 293.8C288.3 293.8 290.7 294.1 292.8 294.6C294.9 295.1 296.7 295.8 298.2 297C299.7 298.1 300.8 299.8 301.4 302C302.5 306 302.1 309.4 300.2 312.3C298.3 315.1 295.1 317.1 290.5 318.3C287.5 319.1 284.9 319.4 282.6 319.2C280.3 318.9 278.2 318.5 276.4 317.9C274.6 317.3 273 316.8 271.6 316.3C270.2 315.8 269.1 315.7 268.1 315.9C267.4 316.1 266.8 316.5 266.2 317C265.7 317.5 265.3 318.1 265 318.8L262.4 327.7C264.5 329 266.8 330 269.3 330.8C271.8 331.6 274.4 332.2 277.1 332.5C279.8 332.8 282.5 332.9 285.3 332.7C288.1 332.5 290.8 332.1 293.6 331.4C298.3 330.1 302.3 328.3 305.6 325.9C308.9 323.5 311.4 320.7 313.3 317.5C315.2 314.3 316.3 310.8 316.7 307.1C316.7 303.6 316.4 299.8 315.4 295.9ZM568.4 194.4C567.3 190.4 565.7 186.9 563.4 183.9C561.2 180.9 558.4 178.6 555.1 176.9C551.7 175.2 547.8 174.3 543.2 174C538.7 173.8 533.5 174.4 527.8 176L500 183.4L523 269L538.9 264.7L530.8 234.6L542.7 231.4C548.3 229.9 552.9 227.9 556.7 225.4C560.5 222.9 563.5 220 565.6 216.8C567.7 213.6 569 210.1 569.4 206.3C569.8 202.5 569.5 198.6 568.4 194.4ZM553.2 205.5C553 207.6 552.4 209.6 551.3 211.3C550.2 213 548.7 214.6 546.8 215.9C544.8 217.2 542.4 218.2 539.5 219L527.6 222.2L519.4 191.5L531.3 188.3C534.2 187.5 536.9 187.2 539.3 187.3C541.6 187.4 543.7 187.9 545.5 188.8C547.3 189.7 548.8 191 550 192.7C551.2 194.4 552.1 196.3 552.7 198.6C553.1 201.1 553.4 203.4 553.2 205.5Z" fill="white"/>
</svg>
