<svg width="132" height="66" viewBox="0 0 132 66" fill="none" xmlns="http://www.w3.org/2000/svg">
<path d="M0 0.0062294V65.0161H132V0.0062294H0ZM25.972 24.3826C22.7447 24.3826 20.0826 21.218 20.0826 17.2468V16.3143H14.2928V25.9341L25.972 33.3807V56.5271H8.40343V40.4548C11.6307 40.4548 14.2928 43.6195 14.2928 47.5906V48.5231H20.1338V38.4693L8.40343 31.1459V8.37195H25.972V24.3826ZM44.5904 41.5106L32.965 33.504V49.5146C32.965 53.4241 30.3514 56.5887 27.1241 56.5887V8.43358H32.965V24.5058L38.7521 28.5387V16.4376H34.117V8.43358H44.5904V41.5106ZM63.669 56.5271C60.3421 56.5271 57.6773 53.3009 57.6773 49.2681V40.4548L51.7368 36.4837V56.4655H45.7424V8.37195H51.7368V28.4154L57.6773 32.3866L60.3421 34.1873L57.6773 31.2075V16.3759H52.8888V8.37195H63.669V56.5271ZM82.7745 27.4856L76.6806 32.9466L80.1636 30.8351L82.7745 32.5741V56.6531C79.4449 56.6531 76.7829 53.4241 76.7829 49.3913V37.5394L67.9219 31.58L70.8423 34.2489V56.6531H64.848V8.49521H70.8423V24.5675L76.7829 28.603V16.5019H71.9944V8.49521H82.7745V27.4856ZM103.57 16.4376H96.809V56.6531H90.5104V16.4376H83.6467V8.43358H103.57V16.4376ZM123.597 56.5271H117.247V40.4548L110.997 36.4837V48.834C110.997 53.0517 108.181 56.4655 104.698 56.4655V8.37195H110.946V28.4154L117.196 32.4482V16.3759H112.098V8.37195H123.597V56.5271Z" fill="white"/>
</svg>
