<svg width="103" height="103" viewBox="0 0 103 103" fill="none" xmlns="http://www.w3.org/2000/svg">
<path fill-rule="evenodd" clip-rule="evenodd" d="M52 1.99964C79.6142 1.99964 102 24.3856 102 52C102 79.6138 79.6142 102 52 102C24.3857 102 1.99995 79.6138 1.99995 52C1.99995 24.3856 24.3857 1.99964 52 1.99964Z" fill="#ED213A" fill-opacity="0.01"/>
<path fill-rule="evenodd" clip-rule="evenodd" d="M57.3078 29.2402C57.3078 25.7915 54.5114 22.9958 51.062 22.9958C47.6125 22.9958 44.8163 25.7915 44.8163 29.2402C44.8163 32.6889 47.6125 35.4851 51.062 35.4851C54.5114 35.4851 57.3078 32.6889 57.3078 29.2402ZM77.5834 32.8772H79.1795C80.2256 32.8772 81.0736 33.7248 81.0737 34.7708C81.0737 35.8167 80.2256 36.6644 79.1797 36.6644H77.5835V42.0083C77.5835 42.5603 77.1355 43.0087 76.5829 43.0087H73.8491C73.2964 43.0087 72.8484 42.5608 72.8484 42.0083V36.6644H68.9547C68.9074 37.1117 68.7464 38.634 68.5612 40.3849C68.2777 43.0646 67.9377 46.2797 67.8621 46.9953C67.6032 49.4388 64.5715 50.3288 63.0019 48.5326L59.0101 43.9646V54.667L69.204 58.808C70.3845 59.2878 71.2256 60.3531 71.4177 61.6125L73.4356 74.839C73.7367 76.8127 72.3805 78.6566 70.406 78.958C68.4316 79.2594 66.587 77.9036 66.2857 75.9289L64.5778 64.7342L55.2218 60.9334H46.9165L37.5607 64.7342L35.8525 75.9289C35.5514 77.9032 33.7067 79.2594 31.7324 78.958C29.7579 78.6571 28.4016 76.8127 28.7028 74.839L30.7206 61.6125C30.9127 60.3531 31.7536 59.2878 32.9342 58.8085L43.0479 54.7V44.0604L39.1392 48.5326C37.5267 50.3786 34.5306 49.3729 34.2791 46.9953C34.154 45.8102 33.3066 37.7982 33.1866 36.6644H29.2844V42.0083C29.2844 42.5608 28.8363 43.0087 28.2837 43.0087H25.5499C24.9973 43.0087 24.5493 42.5608 24.5493 42.0083V36.6644H22.9533C21.9071 36.6644 21.0591 35.8167 21.0591 34.7708C21.0591 33.7248 21.9071 32.8772 22.9533 32.8777H24.5491V27.5338C24.5491 26.9813 24.9972 26.5334 25.5497 26.5334H28.2836C28.8363 26.5334 29.2843 26.9813 29.2843 27.5338V32.8777H32.7877C32.6418 31.3451 33.7712 30.0067 35.2626 29.8492C36.7849 29.688 38.1595 30.7984 38.3206 32.3215L38.3794 32.8772H43.1781C44.5781 35.8994 47.6185 37.9249 51.062 37.9249C54.4589 37.9249 57.5252 35.9444 58.946 32.8772H63.7622L63.821 32.3215C63.9809 30.8093 65.343 29.687 66.8791 29.8492C68.3726 30.0072 69.4996 31.3467 69.3539 32.8772H72.8482V27.5333C72.8482 26.9813 73.2963 26.5334 73.8489 26.5334H76.5828C77.1353 26.5334 77.5834 26.9813 77.5834 27.5333V32.8772ZM38.7798 36.6644L39.1409 40.0786L42.1244 36.6644H38.7798ZM62.3037 39.2814C62.3953 39.3862 62.396 39.387 63.0004 40.0786C63.058 39.5334 63.0832 39.295 63.1084 39.0565C63.1486 38.6757 63.1889 38.2948 63.3613 36.6644H60.0167C61.9173 38.8391 62.1857 39.1464 62.3037 39.2814Z" fill="#12C2E9"/>
</svg>
