<svg width="103" height="103" viewBox="0 0 103 103" fill="none" xmlns="http://www.w3.org/2000/svg">
<path fill-rule="evenodd" clip-rule="evenodd" d="M54.4263 22.1941C51.8837 20.8804 48.7735 22.0756 47.782 24.7462C46.9644 26.9493 47.9407 29.4572 50.0374 30.5403C52.58 31.8535 55.6898 30.6588 56.6815 27.9876C57.4993 25.7852 56.5231 23.2772 54.4263 22.1941ZM61.5545 34.6878C61.8378 33.9272 62.6884 33.5373 63.455 33.8195C64.2213 34.1006 64.6129 34.9463 64.3298 35.7069L63.6191 37.6169C62.8433 37.0065 61.8561 36.6624 60.8063 36.6993L61.5545 34.6878ZM72.6482 35.3095C73.3125 34.7122 74.3739 34.825 74.8859 35.6037C75.2862 36.213 75.1457 37.0286 74.6029 37.5166L72.4326 39.4685C72.9143 39.9253 73.1775 40.5964 73.0796 41.302C72.9174 42.4718 71.8304 43.2857 70.6597 43.1241L69.1292 42.915C66.5237 46.1614 64.7101 49.9678 63.8353 54.0441C63.268 51.6948 63.0468 49.2861 63.1698 46.8886C63.9082 45.3408 64.7807 43.8581 65.7785 42.4559L65.0145 42.3517C65.3832 41.2901 65.3126 40.1265 64.8268 39.1188L65.216 38.0726L69.0508 38.5974C69.6311 38.0205 69.8689 37.8069 71.4462 36.3899C71.7811 36.089 72.1764 35.7339 72.6482 35.3095ZM65.5685 77.421C67.9749 76.8066 69.7534 74.6371 69.7534 72.0554C69.7534 71.0806 69.4993 70.1652 69.0543 69.3701C68.5724 68.508 67.8661 67.7882 67.0134 67.2866L63.3382 57.9525C61.7254 53.8571 61.1626 49.472 61.6495 45.1713L61.6123 45.1776C61.5323 45.1908 61.4515 45.1998 60.3662 45.3207C59.9542 45.3666 59.3976 45.4286 58.6413 45.5131C58.2301 50.0688 58.8771 54.6914 60.583 59.0237L63.4979 66.4263L61.6212 66.1791L59.8751 61.7442L59.4225 65.8884L53.9459 65.1652C53.5389 65.8164 52.9974 66.352 52.274 66.7561L53.1894 66.7998C54.0773 66.8423 54.822 67.5326 54.8653 68.4151C54.9161 69.4477 54.0595 70.257 53.0684 70.2072C52.7325 70.1912 51.5145 70.1328 50.2532 70.0723C48.8299 70.0041 47.3514 69.9332 47.0221 69.9176C46.0756 69.8717 45.3453 69.0725 45.3911 68.1322C45.4311 67.3133 46.0675 66.458 47.3462 66.5192C46.491 65.9235 45.8553 65.0524 45.557 64.0578L42.5507 63.6604L44.0343 59.0311C44.1369 58.7109 44.1728 58.3731 44.1393 58.0381L43.6324 52.9678C42.6627 52.788 41.8966 52.6469 41.2874 52.5347C39.2634 52.1619 38.9706 52.108 38.6907 52.0151C38.642 51.9989 38.5938 51.9816 38.5369 51.9612L39.1424 58.0188L37.6099 62.8012C32.7389 63.1147 28.885 67.1364 28.885 72.0554C28.885 74.7686 30.0583 77.2102 31.9281 78.9065L30.5485 80.2775C30.1291 80.6941 30.0516 81.3617 30.4068 81.8333C30.8495 82.4216 31.6927 82.4658 32.1959 81.9659L33.8973 80.2758C35.1904 80.9486 36.6607 81.3311 38.2216 81.3311C39.6135 81.3311 62.6208 77.7979 62.6208 77.7979L66.747 81.9597C67.2055 82.4222 67.9548 82.4284 68.4207 81.9727C68.8862 81.517 68.8919 80.7729 68.4334 80.3103L65.5685 77.421ZM43.7944 72.3439C43.6506 75.1607 41.3469 77.4488 38.5121 77.5916C35.2011 77.7582 32.4814 75.0565 32.6491 71.7669C32.7928 68.9501 35.0963 66.6621 37.9314 66.5192C41.2423 66.3526 43.962 69.0544 43.7944 72.3439ZM53.3337 39.6647L60.7144 38.8424C61.9735 38.7018 63.0987 39.6721 63.1012 40.9671C63.1033 42.0616 62.2323 42.9661 61.1372 43.088L52.6684 44.0322C51.9422 44.1127 51.2392 43.8225 50.7843 43.2841L45.5683 37.1098L48.8279 43.9965L47.8058 46.4501L51.8943 47.2078C53.2179 47.4538 54.1282 48.6695 53.9832 49.9997L52.5654 63.0172C52.4223 64.3299 51.3052 65.3024 50.007 65.3024C48.4737 65.3024 47.277 63.9835 47.4421 62.4669L48.6033 51.806C39.834 50.1809 39.3777 50.1374 39.0008 49.9412C38.96 49.92 38.9201 49.897 38.8707 49.8699C37.3555 49.2981 36.7106 47.4526 37.359 45.7569C37.5818 45.174 38.2319 43.4737 38.9847 41.5047C40.2558 38.1802 41.8198 34.0897 42.1146 33.318C42.7679 31.6104 44.553 30.6973 46.0141 31.3395C50.8115 33.4473 58.763 36.9131 58.763 36.9131L53.3559 37.5161C51.6786 36.3418 50.4422 35.4764 49.5218 34.8321C49.2792 34.6623 49.0585 34.5078 48.8575 34.3671L53.3337 39.6647Z" fill="#12C2E9"/>
<path fill-rule="evenodd" clip-rule="evenodd" d="M52 1.99976C79.6142 1.99976 102 24.3857 102 52.0001C102 79.614 79.6142 102 52 102C24.3857 102 2 79.614 2 52.0001C2 24.3857 24.3857 1.99976 52 1.99976Z" fill="#ED213A" fill-opacity="0.01"/>
</svg>
